<svg width="657.9px" height="122px" xmlns="http://www.w3.org/2000/svg" viewBox="-78.94687499999998 14 657.89375 122" style="background: rgba(0, 0, 0, 0)" preserveAspectRatio="xMidYMid"><defs><linearGradient id="editing-gradient-gradient" x1="0" x2="1" y1="0.5" y2="0.5" gradientUnits="objectBoundingBox"><stop offset="0" stop-color="#387dea"></stop><stop offset="1" stop-color="#ca0ab7"></stop></linearGradient></defs><g><g transform="matrix(1.3,0,0,1.5,-51.2,176.9)"><path d="M 6.6 -48.1 L -7.3 -48.1 L 0.8 -90.3 L 14.9 -90.3 L 6.6 -48.1 Z M 62.4 -46.8 L 62.4 -46.8 L 62.4 -46.8 Q 54.6 -46.8 54.6 -52.8 L 54.6 -52.8 L 54.6 -52.8 Q 54.6 -55.4 55.7 -60.5 L 55.7 -60.5 L 55.7 -60.5 Q 56.9 -65.6 57.2 -67.6 L 57.2 -67.6 L 57.2 -67.6 Q 58.1 -72.3 58.1 -73.8 L 58.1 -73.8 L 58.1 -73.8 Q 58.1 -77.1 55.7 -77.1 L 55.7 -77.1 L 55.7 -77.1 Q 54.1 -77.1 52.6 -74.8 L 52.6 -74.8 L 52.6 -74.8 Q 51 -72.6 50.3 -68.2 L 50.3 -68.2 L 46.4 -48.1 L 33.9 -46.8 L 37.3 -64.2 L 37.3 -64.2 Q 37.9 -67.1 38.4 -70.3 L 38.4 -70.3 L 38.4 -70.3 Q 38.9 -73.6 38.9 -74.1 L 38.9 -74.1 L 38.9 -74.1 Q 38.9 -77.1 36.8 -77.1 L 36.8 -77.1 L 36.8 -77.1 Q 35.3 -77.1 33.7 -74.9 L 33.7 -74.9 L 33.7 -74.9 Q 32.1 -72.7 31.2 -68.2 L 31.2 -68.2 L 27.3 -48.1 L 14.7 -46.8 L 21.4 -80.7 L 31.8 -82 L 30.7 -75.5 L 30.7 -75.5 Q 32.4 -79 35.5 -80.5 L 35.5 -80.5 L 35.5 -80.5 Q 38.6 -82 43.4 -82 L 43.4 -82 L 43.4 -82 Q 46.1 -82 47.9 -80.6 L 47.9 -80.6 L 47.9 -80.6 Q 49.7 -79.3 50.3 -77.1 L 50.3 -77.1 L 50.3 -77.1 Q 51.4 -79.4 54.1 -80.7 L 54.1 -80.7 L 54.1 -80.7 Q 56.9 -82 60.3 -82 L 60.3 -82 L 60.3 -82 Q 63.8 -82 65.5 -81.2 L 65.5 -81.2 L 65.5 -81.2 Q 67.2 -80.5 68.2 -79.3 L 68.2 -79.3 L 68.2 -79.3 Q 69.9 -77.1 69.9 -73 L 69.9 -73 L 69.9 -73 Q 69.9 -68.9 68.2 -60.5 L 68.2 -60.5 L 68.2 -60.5 Q 67.3 -56.4 67.3 -54.9 L 67.3 -54.9 L 67.3 -54.9 Q 67.3 -53.4 68.2 -52.5 L 68.2 -52.5 L 68.2 -52.5 Q 69 -51.6 70.3 -51.5 L 70.3 -51.5 L 70.3 -51.5 Q 69.7 -49.3 67.5 -48.1 L 67.5 -48.1 L 67.5 -48.1 Q 65.2 -46.8 62.4 -46.8 Z M 78 -50 L 78 -50 L 78 -50 Q 76.5 -51.6 75.8 -54.3 L 75.8 -54.3 L 75.8 -54.3 Q 75.2 -56.9 75.2 -61.2 L 75.2 -61.2 L 75.2 -61.2 Q 75.2 -65.5 76.6 -69.4 L 76.6 -69.4 L 76.6 -69.4 Q 78.1 -73.3 80.8 -76.1 L 80.8 -76.1 L 80.8 -76.1 Q 86.3 -82 95.4 -82 L 95.4 -82 L 95.4 -82 Q 98.7 -82 101 -80.9 L 101 -80.9 L 112 -82 L 107.2 -57 L 107.2 -57 Q 107 -56.3 107 -54.8 L 107 -54.8 L 107 -54.8 Q 107 -53.4 107.9 -52.5 L 107.9 -52.5 L 107.9 -52.5 Q 108.8 -51.6 110 -51.5 L 110 -51.5 L 110 -51.5 Q 109.4 -49.3 107.1 -48.1 L 107.1 -48.1 L 107.1 -48.1 Q 104.7 -46.8 102.1 -46.8 L 102.1 -46.8 L 102.1 -46.8 Q 99.5 -46.8 97.7 -47.8 L 97.7 -47.8 L 97.7 -47.8 Q 96 -48.8 95.5 -50.4 L 95.5 -50.4 L 95.5 -50.4 Q 94.4 -48.8 92.3 -47.8 L 92.3 -47.8 L 92.3 -47.8 Q 90.1 -46.8 87.2 -46.8 L 87.2 -46.8 L 87.2 -46.8 Q 84.3 -46.8 81.9 -47.6 L 81.9 -47.6 L 81.9 -47.6 Q 79.5 -48.3 78 -50 Z M 91.5 -76 L 91.5 -76 L 91.5 -76 Q 90.8 -74.8 90.1 -72.9 L 90.1 -72.9 L 90.1 -72.9 Q 89.5 -70.9 88.4 -65.7 L 88.4 -65.7 L 88.4 -65.7 Q 87.4 -60.5 87.4 -56.8 L 87.4 -56.8 L 87.4 -56.8 Q 87.4 -53.1 88 -52 L 88 -52 L 88 -52 Q 88.5 -50.9 89.6 -50.9 L 89.6 -50.9 L 89.6 -50.9 Q 91.6 -50.9 93.1 -52.8 L 93.1 -52.8 L 93.1 -52.8 Q 94.6 -54.8 95.2 -58.2 L 95.2 -58.2 L 98.6 -77 L 98.6 -77 Q 97.2 -78.1 95.7 -78.1 L 95.7 -78.1 L 95.7 -78.1 Q 94.1 -78.1 93.2 -77.6 L 93.2 -77.6 L 93.2 -77.6 Q 92.3 -77.1 91.5 -76 Z M 119.7 -74.8 L 119.7 -74.8 L 119.7 -74.8 Q 121.9 -77.9 125.2 -79.9 L 125.2 -79.9 L 125.2 -79.9 Q 128.5 -82 132.5 -82 L 132.5 -82 L 132.5 -82 Q 136.5 -82 138.5 -80.7 L 138.5 -80.7 L 151 -82 L 146.7 -57.4 L 146.7 -57.4 Q 144.4 -44.9 139.7 -39.9 L 139.7 -39.9 L 139.7 -39.9 Q 135.1 -35.3 126.3 -35.3 L 126.3 -35.3 L 126.3 -35.3 Q 119.6 -35.3 115.7 -37.4 L 115.7 -37.4 L 115.7 -37.4 Q 111.9 -39.5 111.9 -43 L 111.9 -43 L 111.9 -43 Q 111.9 -45.6 113.9 -47.1 L 113.9 -47.1 L 113.9 -47.1 Q 115.9 -48.6 118.9 -48.6 L 118.9 -48.6 L 118.9 -48.6 Q 121.6 -48.6 123.7 -47.4 L 123.7 -47.4 L 123.7 -47.4 Q 124.9 -46.8 125.5 -45.9 L 125.5 -45.9 L 125.5 -45.9 Q 124 -44.6 124 -42.5 L 124 -42.5 L 124 -42.5 Q 124 -39.7 126.6 -39.7 L 126.6 -39.7 L 126.6 -39.7 Q 130.8 -39.7 133.3 -49.9 L 133.3 -49.9 L 133.3 -49.9 Q 134 -52.6 134.6 -55.4 L 134.6 -55.4 L 134.6 -55.4 Q 131.7 -51.8 125.1 -51.8 L 125.1 -51.8 L 125.1 -51.8 Q 120.6 -51.8 118 -54 L 118 -54 L 118 -54 Q 115.4 -56.2 115.4 -61.3 L 115.4 -61.3 L 115.4 -61.3 Q 115.4 -64.5 116.4 -68.1 L 116.4 -68.1 L 116.4 -68.1 Q 117.5 -71.7 119.7 -74.8 Z M 128 -61.1 L 128 -61.1 L 128 -61.1 Q 128 -56.8 130.3 -56.8 L 130.3 -56.8 L 130.3 -56.8 Q 131.8 -56.8 133.3 -58.4 L 133.3 -58.4 L 133.3 -58.4 Q 134.4 -59.8 134.9 -61.8 L 134.9 -61.8 L 138.1 -78.2 L 138.1 -78.2 Q 137.8 -78.3 137.5 -78.4 L 137.5 -78.4 L 137.5 -78.4 Q 136.9 -78.7 136 -78.7 L 136 -78.7 L 136 -78.7 Q 132.1 -78.7 129.8 -72.3 L 129.8 -72.3 L 129.8 -72.3 Q 128 -67.3 128 -61.1 Z M 179.4 -58.9 L 179.4 -58.9 L 179.4 -58.9 Q 181 -57.8 181 -55.4 L 181 -55.4 L 181 -55.4 Q 181 -53 179.8 -51.5 L 179.8 -51.5 L 179.8 -51.5 Q 178.6 -49.9 176.6 -48.9 L 176.6 -48.9 L 176.6 -48.9 Q 172.5 -46.8 168.1 -46.8 L 168.1 -46.8 L 168.1 -46.8 Q 163.7 -46.8 161.1 -47.7 L 161.1 -47.7 L 161.1 -47.7 Q 158.5 -48.7 156.8 -50.5 L 156.8 -50.5 L 156.8 -50.5 Q 153.4 -53.9 153.4 -60.1 L 153.4 -60.1 L 153.4 -60.1 Q 153.4 -69.8 158.6 -75.6 L 158.6 -75.6 L 158.6 -75.6 Q 164.3 -82 174 -82 L 174 -82 L 174 -82 Q 180.1 -82 183.1 -79.4 L 183.1 -79.4 L 183.1 -79.4 Q 185.4 -77.5 185.4 -74.4 L 185.4 -74.4 L 185.4 -74.4 Q 185.4 -63.1 165.9 -63.1 L 165.9 -63.1 L 165.9 -63.1 Q 165.7 -61.4 165.7 -60 L 165.7 -60 L 165.7 -60 Q 165.7 -57.1 167 -56 L 167 -56 L 167 -56 Q 168.3 -54.8 170.7 -54.8 L 170.7 -54.8 L 170.7 -54.8 Q 173.1 -54.8 175.7 -56 L 175.7 -56 L 175.7 -56 Q 178.3 -57.1 179.4 -58.9 Z M 166.4 -65.9 L 166.4 -65.9 L 166.4 -65.9 Q 170.9 -65.9 173.5 -68.7 L 173.5 -68.7 L 173.5 -68.7 Q 176.2 -71.4 176.2 -75.6 L 176.2 -75.6 L 176.2 -75.6 Q 176.2 -77.1 175.6 -77.9 L 175.6 -77.9 L 175.6 -77.9 Q 175.1 -78.7 174 -78.7 L 174 -78.7 L 174 -78.7 Q 172.9 -78.7 172 -78.3 L 172 -78.3 L 172 -78.3 Q 171 -77.9 170.1 -76.5 L 170.1 -76.5 L 170.1 -76.5 Q 167.7 -73.3 166.4 -65.9 Z M 206.7 -70.5 L 206.7 -70.5 L 206.7 -70.5 Q 207.6 -72.9 207.6 -74.9 L 207.6 -74.9 L 207.6 -74.9 Q 207.6 -78.7 204.5 -78.7 L 204.5 -78.7 L 204.5 -78.7 Q 202.9 -78.7 201.6 -77.3 L 201.6 -77.3 L 201.6 -77.3 Q 200.3 -75.8 200.3 -74 L 200.3 -74 L 200.3 -74 Q 200.3 -72.8 201.3 -71.7 L 201.3 -71.7 L 201.3 -71.7 Q 202.8 -70.3 206.6 -68 L 206.6 -68 L 206.6 -68 Q 210.3 -65.7 211.8 -63.8 L 211.8 -63.8 L 211.8 -63.8 Q 213.2 -62 213.2 -59.4 L 213.2 -59.4 L 213.2 -59.4 Q 213.2 -56.8 212 -54.4 L 212 -54.4 L 212 -54.4 Q 210.7 -52 208.5 -50.4 L 208.5 -50.4 L 208.5 -50.4 Q 203.7 -46.8 196 -46.8 L 196 -46.8 L 196 -46.8 Q 191.8 -46.8 188.6 -49 L 188.6 -49 L 188.6 -49 Q 185.4 -51.1 185.4 -53.6 L 185.4 -53.6 L 185.4 -53.6 Q 185.4 -56.1 187.3 -57.5 L 187.3 -57.5 L 187.3 -57.5 Q 189.1 -59 191.8 -59 L 191.8 -59 L 191.8 -59 Q 194.5 -59 196.1 -58 L 196.1 -58 L 196.1 -58 Q 195.3 -55.9 195.3 -54.5 L 195.3 -54.5 L 195.3 -54.5 Q 195.3 -50.2 198.9 -50.2 L 198.9 -50.2 L 198.9 -50.2 Q 200.4 -50.2 201.4 -51.2 L 201.4 -51.2 L 201.4 -51.2 Q 202.5 -52.2 202.5 -53.8 L 202.5 -53.8 L 202.5 -53.8 Q 202.5 -57.1 197 -60.5 L 197 -60.5 L 197 -60.5 Q 192.5 -63.5 191.5 -64.6 L 191.5 -64.6 L 191.5 -64.6 Q 189.7 -66.7 189.7 -69.2 L 189.7 -69.2 L 189.7 -69.2 Q 189.7 -71.8 190.9 -74.2 L 190.9 -74.2 L 190.9 -74.2 Q 192.2 -76.7 194.4 -78.4 L 194.4 -78.4 L 194.4 -78.4 Q 199.1 -82 207.2 -82 L 207.2 -82 L 207.2 -82 Q 211.4 -82 213.8 -80.3 L 213.8 -80.3 L 213.8 -80.3 Q 216.3 -78.7 216.3 -75.8 L 216.3 -75.8 L 216.3 -75.8 Q 216.3 -73 214.6 -71.4 L 214.6 -71.4 L 214.6 -71.4 Q 212.9 -69.8 209.8 -69.8 L 209.8 -69.8 L 209.8 -69.8 Q 207.7 -69.8 206.7 -70.5 Z M 257.8 -68.7 L 270.7 -69.8 L 270.7 -69.8 Q 266.1 -59.7 266.1 -48 L 266.1 -48 L 266.1 -48 Q 264.3 -46.8 261.8 -46.8 L 261.8 -46.8 L 261.8 -46.8 Q 259.3 -46.8 257.7 -48 L 257.7 -48 L 257.7 -48 Q 256.1 -49.2 255.8 -50.4 L 255.8 -50.4 L 255.8 -50.4 Q 254.2 -48.7 251.6 -47.7 L 251.6 -47.7 L 251.6 -47.7 Q 249 -46.8 246.2 -46.8 L 246.2 -46.8 L 246.2 -46.8 Q 243.5 -46.8 241.1 -47.7 L 241.1 -47.7 L 241.1 -47.7 Q 238.7 -48.6 236.8 -50.6 L 236.8 -50.6 L 236.8 -50.6 Q 232.7 -54.9 232.7 -63.2 L 232.7 -63.2 L 232.7 -63.2 Q 232.7 -76 239.6 -83.6 L 239.6 -83.6 L 239.6 -83.6 Q 246.6 -91.6 259.1 -91.6 L 259.1 -91.6 L 259.1 -91.6 Q 267.7 -91.6 270.8 -87.1 L 270.8 -87.1 L 270.8 -87.1 Q 271.8 -85.7 271.8 -84 L 271.8 -84 L 271.8 -84 Q 271.8 -82.3 271 -80.9 L 271 -80.9 L 271 -80.9 Q 270.3 -79.4 269.1 -78.3 L 269.1 -78.3 L 269.1 -78.3 Q 266.4 -75.7 263 -75.7 L 263 -75.7 L 263 -75.7 Q 261.7 -75.7 260.4 -76.2 L 260.4 -76.2 L 260.4 -76.2 Q 260.6 -78.1 260.6 -80.3 L 260.6 -80.3 L 260.6 -80.3 Q 260.6 -82.6 260.5 -83.6 L 260.5 -83.6 L 260.5 -83.6 Q 260.3 -84.6 259.9 -85.4 L 259.9 -85.4 L 259.9 -85.4 Q 259.1 -87.2 257.3 -87.2 L 257.3 -87.2 L 257.3 -87.2 Q 255.5 -87.2 253.4 -85.2 L 253.4 -85.2 L 253.4 -85.2 Q 251.4 -83.3 249.8 -80.1 L 249.8 -80.1 L 249.8 -80.1 Q 246.3 -72.9 246.3 -64.3 L 246.3 -64.3 L 246.3 -64.3 Q 246.3 -60.3 247.8 -57.5 L 247.8 -57.5 L 247.8 -57.5 Q 249.5 -54.4 252.4 -54.4 L 252.4 -54.4 L 252.4 -54.4 Q 253.5 -54.4 254.4 -54.9 L 254.4 -54.9 L 254.4 -54.9 Q 255.3 -55.4 255.7 -55.8 L 255.7 -55.8 L 257.8 -68.7 Z M 276.6 -50 L 276.6 -50 L 276.6 -50 Q 275.1 -51.6 274.4 -54.3 L 274.4 -54.3 L 274.4 -54.3 Q 273.8 -56.9 273.8 -61.2 L 273.8 -61.2 L 273.8 -61.2 Q 273.8 -65.5 275.2 -69.4 L 275.2 -69.4 L 275.2 -69.4 Q 276.7 -73.3 279.4 -76.1 L 279.4 -76.1 L 279.4 -76.1 Q 284.9 -82 294 -82 L 294 -82 L 294 -82 Q 297.2 -82 299.6 -80.9 L 299.6 -80.9 L 310.6 -82 L 305.8 -57 L 305.8 -57 Q 305.6 -56.3 305.6 -54.8 L 305.6 -54.8 L 305.6 -54.8 Q 305.6 -53.4 306.5 -52.5 L 306.5 -52.5 L 306.5 -52.5 Q 307.4 -51.6 308.6 -51.5 L 308.6 -51.5 L 308.6 -51.5 Q 308 -49.3 305.7 -48.1 L 305.7 -48.1 L 305.7 -48.1 Q 303.3 -46.8 300.7 -46.8 L 300.7 -46.8 L 300.7 -46.8 Q 298.1 -46.8 296.3 -47.8 L 296.3 -47.8 L 296.3 -47.8 Q 294.6 -48.8 294 -50.4 L 294 -50.4 L 294 -50.4 Q 293 -48.8 290.8 -47.8 L 290.8 -47.8 L 290.8 -47.8 Q 288.7 -46.8 285.8 -46.8 L 285.8 -46.8 L 285.8 -46.8 Q 282.8 -46.8 280.5 -47.6 L 280.5 -47.6 L 280.5 -47.6 Q 278.1 -48.3 276.6 -50 Z M 290.1 -76 L 290.1 -76 L 290.1 -76 Q 289.4 -74.8 288.7 -72.9 L 288.7 -72.9 L 288.7 -72.9 Q 288.1 -70.9 287 -65.7 L 287 -65.7 L 287 -65.7 Q 286 -60.5 286 -56.8 L 286 -56.8 L 286 -56.8 Q 286 -53.1 286.6 -52 L 286.6 -52 L 286.6 -52 Q 287.1 -50.9 288.2 -50.9 L 288.2 -50.9 L 288.2 -50.9 Q 290.2 -50.9 291.7 -52.8 L 291.7 -52.8 L 291.7 -52.8 Q 293.2 -54.8 293.8 -58.2 L 293.8 -58.2 L 297.2 -77 L 297.2 -77 Q 295.8 -78.1 294.3 -78.1 L 294.3 -78.1 L 294.3 -78.1 Q 292.7 -78.1 291.8 -77.6 L 291.8 -77.6 L 291.8 -77.6 Q 290.8 -77.1 290.1 -76 Z M 329.3 -51.6 L 329.3 -51.6 L 329.3 -51.6 Q 327.3 -46.8 321 -46.8 L 321 -46.8 L 321 -46.8 Q 317.8 -46.8 315.7 -49 L 315.7 -49 L 315.7 -49 Q 314.1 -50.9 314.1 -53 L 314.1 -53 L 314.1 -53 Q 314.1 -57.8 316.3 -68.3 L 316.3 -68.3 L 321 -92.9 L 334 -94.1 L 327.8 -61.8 L 327.8 -61.8 Q 326.7 -57 326.7 -55.4 L 326.7 -55.4 L 326.7 -55.4 Q 326.7 -51.7 329.3 -51.6 Z M 350 -51.6 L 350 -51.6 L 350 -51.6 Q 348.1 -46.8 341.7 -46.8 L 341.7 -46.8 L 341.7 -46.8 Q 338.5 -46.8 336.5 -49 L 336.5 -49 L 336.5 -49 Q 334.8 -50.9 334.8 -53 L 334.8 -53 L 334.8 -53 Q 334.8 -57.8 337.1 -68.3 L 337.1 -68.3 L 341.7 -92.9 L 354.7 -94.1 L 348.5 -61.8 L 348.5 -61.8 Q 347.4 -57 347.4 -55.4 L 347.4 -55.4 L 347.4 -55.4 Q 347.4 -51.7 350 -51.6 Z M 381.4 -58.9 L 381.4 -58.9 L 381.4 -58.9 Q 383 -57.8 383 -55.4 L 383 -55.4 L 383 -55.4 Q 383 -53 381.8 -51.5 L 381.8 -51.5 L 381.8 -51.5 Q 380.6 -49.9 378.6 -48.9 L 378.6 -48.9 L 378.6 -48.9 Q 374.5 -46.8 370.1 -46.8 L 370.1 -46.8 L 370.1 -46.8 Q 365.7 -46.8 363.1 -47.7 L 363.1 -47.7 L 363.1 -47.7 Q 360.5 -48.7 358.7 -50.5 L 358.7 -50.5 L 358.7 -50.5 Q 355.4 -53.9 355.4 -60.1 L 355.4 -60.1 L 355.4 -60.1 Q 355.4 -69.8 360.6 -75.6 L 360.6 -75.6 L 360.6 -75.6 Q 366.2 -82 376 -82 L 376 -82 L 376 -82 Q 382.1 -82 385.1 -79.4 L 385.1 -79.4 L 385.1 -79.4 Q 387.4 -77.5 387.4 -74.4 L 387.4 -74.4 L 387.4 -74.4 Q 387.4 -63.1 367.9 -63.1 L 367.9 -63.1 L 367.9 -63.1 Q 367.6 -61.4 367.6 -60 L 367.6 -60 L 367.6 -60 Q 367.6 -57.1 369 -56 L 369 -56 L 369 -56 Q 370.3 -54.8 372.7 -54.8 L 372.7 -54.8 L 372.7 -54.8 Q 375.1 -54.8 377.7 -56 L 377.7 -56 L 377.7 -56 Q 380.3 -57.1 381.4 -58.9 Z M 368.3 -65.9 L 368.3 -65.9 L 368.3 -65.9 Q 372.9 -65.9 375.5 -68.7 L 375.5 -68.7 L 375.5 -68.7 Q 378.1 -71.4 378.1 -75.6 L 378.1 -75.6 L 378.1 -75.6 Q 378.1 -77.1 377.6 -77.9 L 377.6 -77.9 L 377.6 -77.9 Q 377.1 -78.7 376 -78.7 L 376 -78.7 L 376 -78.7 Q 374.9 -78.7 373.9 -78.3 L 373.9 -78.3 L 373.9 -78.3 Q 373 -77.9 372.1 -76.5 L 372.1 -76.5 L 372.1 -76.5 Q 369.7 -73.3 368.3 -65.9 Z M 409.6 -66 L 409.6 -66 L 409.6 -66 Q 411.9 -70.1 411.9 -74.3 L 411.9 -74.3 L 411.9 -74.3 Q 411.9 -77.1 409.9 -77.1 L 409.9 -77.1 L 409.9 -77.1 Q 408.3 -77.1 406.7 -74.4 L 406.7 -74.4 L 406.7 -74.4 Q 405.1 -71.8 404.6 -68.4 L 404.6 -68.4 L 401.2 -48.1 L 388 -46.8 L 394.5 -80.7 L 405.1 -82 L 403.9 -75.5 L 403.9 -75.5 Q 407.1 -82 414.1 -82 L 414.1 -82 L 414.1 -82 Q 417.8 -82 419.8 -80.1 L 419.8 -80.1 L 419.8 -80.1 Q 421.9 -78.1 421.9 -74.2 L 421.9 -74.2 L 421.9 -74.2 Q 421.9 -70.3 419.3 -67.8 L 419.3 -67.8 L 419.3 -67.8 Q 416.7 -65.3 412.3 -65.3 L 412.3 -65.3 L 412.3 -65.3 Q 410.3 -65.3 409.6 -66 Z M 443.2 -55.3 L 443.2 -55.3 L 443.2 -55.3 Q 439.9 -51.8 433.8 -51.8 L 433.8 -51.8 L 433.8 -51.8 Q 426.2 -51.8 424.6 -57.4 L 424.6 -57.4 L 424.6 -57.4 Q 424.1 -59.1 424.1 -60.9 L 424.1 -60.9 L 424.1 -60.9 Q 424.1 -62.8 424.5 -64.7 L 424.5 -64.7 L 427.5 -80.7 L 440.5 -82 L 437 -63.4 L 437 -63.4 Q 436.8 -62.5 436.6 -61.6 L 436.6 -61.6 L 436.6 -61.6 Q 436.4 -60.7 436.4 -59.8 L 436.4 -59.8 L 436.4 -59.8 Q 436.4 -58.9 436.8 -58.3 L 436.8 -58.3 L 436.8 -58.3 Q 437.1 -57.7 437.5 -57.3 L 437.5 -57.3 L 437.5 -57.3 Q 438.3 -56.8 439.7 -56.8 L 439.7 -56.8 L 439.7 -56.8 Q 441.1 -56.8 442.2 -58.4 L 442.2 -58.4 L 442.2 -58.4 Q 443.4 -60.1 444 -63 L 444 -63 L 447.5 -80.7 L 460.1 -82 L 455.3 -56.8 L 455.3 -56.8 Q 453 -44.5 448.1 -39.7 L 448.1 -39.7 L 448.1 -39.7 Q 445.6 -37.2 442.4 -36.2 L 442.4 -36.2 L 442.4 -36.2 Q 439.1 -35.2 435 -35.2 L 435 -35.2 L 435 -35.2 Q 428.3 -35.2 424.4 -37.3 L 424.4 -37.3 L 424.4 -37.3 Q 420.6 -39.4 420.6 -42.9 L 420.6 -42.9 L 420.6 -42.9 Q 420.6 -45.6 422.6 -47.1 L 422.6 -47.1 L 422.6 -47.1 Q 424.5 -48.6 427.6 -48.6 L 427.6 -48.6 L 427.6 -48.6 Q 430.3 -48.6 432.3 -47.4 L 432.3 -47.4 L 432.3 -47.4 Q 433.6 -46.7 434.1 -45.8 L 434.1 -45.8 L 434.1 -45.8 Q 432.7 -44.5 432.7 -42.4 L 432.7 -42.4 L 432.7 -42.4 Q 432.7 -39.6 435.2 -39.6 L 435.2 -39.6 L 435.2 -39.6 Q 439.5 -39.6 441.9 -49.3 L 441.9 -49.3 L 441.9 -49.3 Q 442.6 -52.2 443.2 -55.3 Z" fill="url(#editing-gradient-gradient)"></path></g></g><style>text {
  font-size: 64px;
  font-family: Arial Black;
  dominant-baseline: central;
  text-anchor: middle;
}</style></svg>